<svg width="28" height="32" viewBox="0 0 28 32" fill="none" xmlns="http://www.w3.org/2000/svg">
<path d="M5.10407 0.490475L25.5119 12.8327C27.6763 14.1411 27.6763 17.2809 25.5119 18.5893L5.10407 30.9315C2.86232 32.287 1.52588e-05 30.6725 1.52588e-05 28.0541V3.36792C1.52588e-05 0.749461 2.86232 -0.865002 5.10407 0.490475Z" fill="#499ED7"/>
<path d="M5.10407 30.9298L25.5119 18.5876C27.6763 17.2792 27.6763 14.1394 25.5119 12.831L21.3799 10.332L21.1781 10.3253L3.71664 31.3721C4.20642 31.3306 4.68059 31.1794 5.10407 30.9298Z" fill="#F04C4D"/>
<path d="M1.52588e-05 23.4629V28.0523C1.52588e-05 30.6725 2.86232 32.2853 5.10407 30.9298L25.5119 18.5876C26.7984 17.8106 27.3013 16.3878 27.0574 15.0862L1.52588e-05 23.4629Z" fill="#2B8EC6"/>
<path d="M1.81293 0.397949C1.26554 0.676782 0.806262 1.10203 0.486194 1.62637C0.166125 2.15071 -0.00217474 2.75358 2.12177e-05 3.36789V7.68322L1.81293 0.397949Z" fill="#499ED7"/>
<path d="M25.5119 12.8327L5.10406 0.490425C4.67948 0.240335 4.20423 0.0886217 3.71327 0.0464478L21.1764 21.2111L25.5136 18.5892C27.6763 17.2792 27.6763 14.1411 25.5119 12.8327Z" fill="#92CA62"/>
<path d="M13.8323 19.1812L3.71664 31.3738C4.18585 31.325 4.65673 31.2006 5.10407 30.9315L25.5119 18.5893C26.7984 17.8123 27.3013 16.3896 27.0574 15.0879L13.8323 19.1812Z" fill="#E13340"/>
<path d="M25.5119 12.8327L21.3799 10.3336L21.1781 10.3269L16.6744 15.7555L21.1764 21.2111L25.5136 18.5893C27.6763 17.2792 27.6763 14.1411 25.5119 12.8327Z" fill="#FCD770"/>
<path d="M18.3477 17.782L21.1764 21.2094L25.5136 18.5876C26.8001 17.8106 27.3029 16.3878 27.0591 15.0862L18.3477 17.782Z" fill="#FFCC5C"/>
</svg>
