<svg width="30" height="30" viewBox="0 0 30 30" fill="none" xmlns="http://www.w3.org/2000/svg">
<path d="M15 30C23.2843 30 30 23.2843 30 15C30 6.71573 23.2843 0 15 0C6.71574 0 0 6.71573 0 15C0 23.2843 6.71574 30 15 30Z" fill="white"/>
<mask id="mask0_62_192" style="mask-type:luminance" maskUnits="userSpaceOnUse" x="4" y="4" width="21" height="21">
<path d="M24.3055 12.963H14.8148V16.8982H20.2778C19.7685 19.3982 17.6389 20.8333 14.8148 20.8333C11.4815 20.8333 8.79629 18.1482 8.79629 14.8148C8.79629 11.4815 11.4815 8.79631 14.8148 8.79631C16.25 8.79631 17.5463 9.30558 18.5648 10.1389L21.5278 7.17594C19.7222 5.60186 17.4074 4.62964 14.8148 4.62964C9.16666 4.62964 4.62962 9.16668 4.62962 14.8148C4.62962 20.463 9.16666 25 14.8148 25C19.9074 25 24.537 21.2963 24.537 14.8148C24.537 14.213 24.4444 13.5648 24.3055 12.963Z" fill="white"/>
</mask>
<g mask="url(#mask0_62_192)">
<path d="M3.7037 20.8333V8.79626L11.5741 14.8148L3.7037 20.8333Z" fill="#FBBC05"/>
</g>
<mask id="mask1_62_192" style="mask-type:luminance" maskUnits="userSpaceOnUse" x="4" y="4" width="21" height="21">
<path d="M24.3055 12.963H14.8148V16.8982H20.2778C19.7685 19.3982 17.6389 20.8333 14.8148 20.8333C11.4815 20.8333 8.79629 18.1482 8.79629 14.8148C8.79629 11.4815 11.4815 8.79631 14.8148 8.79631C16.25 8.79631 17.5463 9.30558 18.5648 10.1389L21.5278 7.17594C19.7222 5.60186 17.4074 4.62964 14.8148 4.62964C9.16666 4.62964 4.62962 9.16668 4.62962 14.8148C4.62962 20.463 9.16666 25 14.8148 25C19.9074 25 24.537 21.2963 24.537 14.8148C24.537 14.213 24.4444 13.5648 24.3055 12.963Z" fill="white"/>
</mask>
<g mask="url(#mask1_62_192)">
<path d="M3.7037 8.79627L11.5741 14.8148L14.8148 11.9907L25.9259 10.1852V3.70367H3.7037V8.79627Z" fill="#EA4335"/>
</g>
<mask id="mask2_62_192" style="mask-type:luminance" maskUnits="userSpaceOnUse" x="4" y="4" width="21" height="21">
<path d="M24.3055 12.963H14.8148V16.8982H20.2778C19.7685 19.3982 17.6389 20.8333 14.8148 20.8333C11.4815 20.8333 8.79629 18.1482 8.79629 14.8148C8.79629 11.4815 11.4815 8.79631 14.8148 8.79631C16.25 8.79631 17.5463 9.30558 18.5648 10.1389L21.5278 7.17594C19.7222 5.60186 17.4074 4.62964 14.8148 4.62964C9.16666 4.62964 4.62962 9.16668 4.62962 14.8148C4.62962 20.463 9.16666 25 14.8148 25C19.9074 25 24.537 21.2963 24.537 14.8148C24.537 14.213 24.4444 13.5648 24.3055 12.963Z" fill="white"/>
</mask>
<g mask="url(#mask2_62_192)">
<path d="M3.7037 20.8333L17.5926 10.1852L21.25 10.6481L25.9259 3.70367V25.9259H3.7037V20.8333Z" fill="#34A853"/>
</g>
<mask id="mask3_62_192" style="mask-type:luminance" maskUnits="userSpaceOnUse" x="4" y="4" width="21" height="21">
<path d="M24.3055 12.963H14.8148V16.8982H20.2778C19.7685 19.3982 17.6389 20.8333 14.8148 20.8333C11.4815 20.8333 8.79629 18.1482 8.79629 14.8148C8.79629 11.4815 11.4815 8.79631 14.8148 8.79631C16.25 8.79631 17.5463 9.30558 18.5648 10.1389L21.5278 7.17594C19.7222 5.60186 17.4074 4.62964 14.8148 4.62964C9.16666 4.62964 4.62962 9.16668 4.62962 14.8148C4.62962 20.463 9.16666 25 14.8148 25C19.9074 25 24.537 21.2963 24.537 14.8148C24.537 14.213 24.4444 13.5648 24.3055 12.963Z" fill="white"/>
</mask>
<g mask="url(#mask3_62_192)">
<path d="M25.9259 25.9259L11.5741 14.8148L9.72221 13.4259L25.9259 8.79626V25.9259Z" fill="#4285F4"/>
</g>
</svg>
