<svg width="150" height="50" viewBox="0 0 150 50" fill="none" xmlns="http://www.w3.org/2000/svg">
<rect width="150" height="50" fill="#1E1E1E"/>
<rect width="1280" height="832" transform="translate(-898 -709)" fill="#379237"/>
<rect x="0.5" y="0.5" width="149" height="49" rx="5.5" fill="#379237" stroke="white"/>
<path d="M14.1041 9.49048L34.5119 21.8327C36.6763 23.1411 36.6763 26.2809 34.5119 27.5893L14.1041 39.9315C11.8623 41.287 9.00002 39.6725 9.00002 37.0541V12.3679C9.00002 9.74946 11.8623 8.135 14.1041 9.49048Z" fill="#499ED7"/>
<path d="M14.1041 39.9298L34.5119 27.5876C36.6763 26.2792 36.6763 23.1394 34.5119 21.831L30.3799 19.332L30.1781 19.3253L12.7166 40.3721C13.2064 40.3306 13.6806 40.1794 14.1041 39.9298Z" fill="#F04C4D"/>
<path d="M9.00002 32.4629V37.0523C9.00002 39.6725 11.8623 41.2853 14.1041 39.9298L34.5119 27.5876C35.7984 26.8106 36.3013 25.3878 36.0574 24.0862L9.00002 32.4629Z" fill="#2B8EC6"/>
<path d="M10.8129 9.39795C10.2655 9.67678 9.80626 10.102 9.48619 10.6264C9.16613 11.1507 8.99783 11.7536 9.00002 12.3679V16.6832L10.8129 9.39795Z" fill="#499ED7"/>
<path d="M34.5119 21.8327L14.1041 9.49043C13.6795 9.24033 13.2042 9.08862 12.7133 9.04645L30.1764 30.2111L34.5136 27.5892C36.6763 26.2792 36.6763 23.1411 34.5119 21.8327Z" fill="#92CA62"/>
<path d="M22.8323 28.1812L12.7166 40.3738C13.1858 40.325 13.6567 40.2006 14.1041 39.9315L34.5119 27.5893C35.7984 26.8123 36.3013 25.3896 36.0574 24.0879L22.8323 28.1812Z" fill="#E13340"/>
<path d="M34.5119 21.8327L30.3799 19.3336L30.1781 19.3269L25.6744 24.7555L30.1764 30.2111L34.5136 27.5893C36.6763 26.2792 36.6763 23.1411 34.5119 21.8327Z" fill="#FCD770"/>
<path d="M27.3477 26.782L30.1764 30.2094L34.5136 27.5876C35.8001 26.8106 36.3029 25.3878 36.0591 24.0862L27.3477 26.782Z" fill="#FFCC5C"/>
<path d="M47.94 11.03C48.7 11.03 49.3567 11.1733 49.91 11.46C50.47 11.74 50.8967 12.1433 51.19 12.67C51.49 13.1967 51.64 13.8167 51.64 14.53C51.64 15.2433 51.49 15.8633 51.19 16.39C50.8967 16.91 50.47 17.31 49.91 17.59C49.3567 17.8633 48.7 18 47.94 18H45.77V11.03H47.94ZM47.94 17.25C48.84 17.25 49.5267 17.0133 50 16.54C50.4733 16.06 50.71 15.39 50.71 14.53C50.71 13.6633 50.47 12.9867 49.99 12.5C49.5167 12.0133 48.8333 11.77 47.94 11.77H46.68V17.25H47.94ZM55.2303 18.09C54.717 18.09 54.2503 17.9733 53.8303 17.74C53.417 17.5067 53.0903 17.1767 52.8503 16.75C52.617 16.3167 52.5003 15.8167 52.5003 15.25C52.5003 14.69 52.6203 14.1967 52.8603 13.77C53.107 13.3367 53.4403 13.0067 53.8603 12.78C54.2803 12.5467 54.7503 12.43 55.2703 12.43C55.7903 12.43 56.2603 12.5467 56.6803 12.78C57.1003 13.0067 57.4303 13.3333 57.6703 13.76C57.917 14.1867 58.0403 14.6833 58.0403 15.25C58.0403 15.8167 57.9136 16.3167 57.6603 16.75C57.4136 17.1767 57.077 17.5067 56.6503 17.74C56.2236 17.9733 55.7503 18.09 55.2303 18.09ZM55.2303 17.29C55.557 17.29 55.8636 17.2133 56.1503 17.06C56.437 16.9067 56.667 16.6767 56.8403 16.37C57.0203 16.0633 57.1103 15.69 57.1103 15.25C57.1103 14.81 57.0236 14.4367 56.8503 14.13C56.677 13.8233 56.4503 13.5967 56.1703 13.45C55.8903 13.2967 55.587 13.22 55.2603 13.22C54.927 13.22 54.6203 13.2967 54.3403 13.45C54.067 13.5967 53.847 13.8233 53.6803 14.13C53.5136 14.4367 53.4303 14.81 53.4303 15.25C53.4303 15.6967 53.5103 16.0733 53.6703 16.38C53.837 16.6867 54.057 16.9167 54.3303 17.07C54.6036 17.2167 54.9036 17.29 55.2303 17.29ZM66.5368 12.52L64.8268 18H63.8868L62.5668 13.65L61.2468 18H60.3068L58.5868 12.52H59.5168L60.7768 17.12L62.1368 12.52H63.0668L64.3968 17.13L65.6368 12.52H66.5368ZM70.1099 12.42C70.7766 12.42 71.3166 12.6233 71.7299 13.03C72.1433 13.43 72.3499 14.01 72.3499 14.77V18H71.4499V14.9C71.4499 14.3533 71.3133 13.9367 71.0399 13.65C70.7666 13.3567 70.3933 13.21 69.9199 13.21C69.4399 13.21 69.0566 13.36 68.7699 13.66C68.4899 13.96 68.3499 14.3967 68.3499 14.97V18H67.4399V12.52H68.3499V13.3C68.5299 13.02 68.7733 12.8033 69.0799 12.65C69.3933 12.4967 69.7366 12.42 70.1099 12.42ZM74.7464 10.6V18H73.8364V10.6H74.7464ZM78.6873 18.09C78.174 18.09 77.7073 17.9733 77.2873 17.74C76.874 17.5067 76.5473 17.1767 76.3073 16.75C76.074 16.3167 75.9573 15.8167 75.9573 15.25C75.9573 14.69 76.0773 14.1967 76.3173 13.77C76.564 13.3367 76.8973 13.0067 77.3173 12.78C77.7373 12.5467 78.2073 12.43 78.7273 12.43C79.2473 12.43 79.7173 12.5467 80.1373 12.78C80.5573 13.0067 80.8873 13.3333 81.1273 13.76C81.374 14.1867 81.4973 14.6833 81.4973 15.25C81.4973 15.8167 81.3707 16.3167 81.1173 16.75C80.8707 17.1767 80.534 17.5067 80.1073 17.74C79.6807 17.9733 79.2073 18.09 78.6873 18.09ZM78.6873 17.29C79.014 17.29 79.3207 17.2133 79.6073 17.06C79.894 16.9067 80.124 16.6767 80.2973 16.37C80.4773 16.0633 80.5673 15.69 80.5673 15.25C80.5673 14.81 80.4807 14.4367 80.3073 14.13C80.134 13.8233 79.9073 13.5967 79.6273 13.45C79.3473 13.2967 79.044 13.22 78.7173 13.22C78.384 13.22 78.0773 13.2967 77.7973 13.45C77.524 13.5967 77.304 13.8233 77.1373 14.13C76.9707 14.4367 76.8873 14.81 76.8873 15.25C76.8873 15.6967 76.9673 16.0733 77.1273 16.38C77.294 16.6867 77.514 16.9167 77.7873 17.07C78.0607 17.2167 78.3607 17.29 78.6873 17.29ZM82.3538 15.24C82.3538 14.68 82.4672 14.19 82.6938 13.77C82.9205 13.3433 83.2305 13.0133 83.6238 12.78C84.0238 12.5467 84.4672 12.43 84.9538 12.43C85.4338 12.43 85.8505 12.5333 86.2038 12.74C86.5572 12.9467 86.8205 13.2067 86.9938 13.52V12.52H87.9138V18H86.9938V16.98C86.8138 17.3 86.5438 17.5667 86.1838 17.78C85.8305 17.9867 85.4172 18.09 84.9438 18.09C84.4572 18.09 84.0172 17.97 83.6238 17.73C83.2305 17.49 82.9205 17.1533 82.6938 16.72C82.4672 16.2867 82.3538 15.7933 82.3538 15.24ZM86.9938 15.25C86.9938 14.8367 86.9105 14.4767 86.7438 14.17C86.5772 13.8633 86.3505 13.63 86.0638 13.47C85.7838 13.3033 85.4738 13.22 85.1338 13.22C84.7938 13.22 84.4838 13.3 84.2038 13.46C83.9238 13.62 83.7005 13.8533 83.5338 14.16C83.3672 14.4667 83.2838 14.8267 83.2838 15.24C83.2838 15.66 83.3672 16.0267 83.5338 16.34C83.7005 16.6467 83.9238 16.8833 84.2038 17.05C84.4838 17.21 84.7938 17.29 85.1338 17.29C85.4738 17.29 85.7838 17.21 86.0638 17.05C86.3505 16.8833 86.5772 16.6467 86.7438 16.34C86.9105 16.0267 86.9938 15.6633 86.9938 15.25ZM89.1116 15.24C89.1116 14.68 89.225 14.19 89.4516 13.77C89.6783 13.3433 89.9883 13.0133 90.3816 12.78C90.7816 12.5467 91.2283 12.43 91.7216 12.43C92.1483 12.43 92.545 12.53 92.9116 12.73C93.2783 12.9233 93.5583 13.18 93.7516 13.5V10.6H94.6716V18H93.7516V16.97C93.5716 17.2967 93.305 17.5667 92.9516 17.78C92.5983 17.9867 92.185 18.09 91.7116 18.09C91.225 18.09 90.7816 17.97 90.3816 17.73C89.9883 17.49 89.6783 17.1533 89.4516 16.72C89.225 16.2867 89.1116 15.7933 89.1116 15.24ZM93.7516 15.25C93.7516 14.8367 93.6683 14.4767 93.5016 14.17C93.335 13.8633 93.1083 13.63 92.8216 13.47C92.5416 13.3033 92.2316 13.22 91.8916 13.22C91.5516 13.22 91.2416 13.3 90.9616 13.46C90.6816 13.62 90.4583 13.8533 90.2916 14.16C90.125 14.4667 90.0416 14.8267 90.0416 15.24C90.0416 15.66 90.125 16.0267 90.2916 16.34C90.4583 16.6467 90.6816 16.8833 90.9616 17.05C91.2416 17.21 91.5516 17.29 91.8916 17.29C92.2316 17.29 92.5416 17.21 92.8216 17.05C93.1083 16.8833 93.335 16.6467 93.5016 16.34C93.6683 16.0267 93.7516 15.6633 93.7516 15.25ZM99.3455 11.63C99.1721 11.63 99.0255 11.57 98.9055 11.45C98.7855 11.33 98.7255 11.1833 98.7255 11.01C98.7255 10.8367 98.7855 10.69 98.9055 10.57C99.0255 10.45 99.1721 10.39 99.3455 10.39C99.5121 10.39 99.6521 10.45 99.7655 10.57C99.8855 10.69 99.9455 10.8367 99.9455 11.01C99.9455 11.1833 99.8855 11.33 99.7655 11.45C99.6521 11.57 99.5121 11.63 99.3455 11.63ZM99.7855 12.52V18H98.8755V12.52H99.7855ZM102.446 13.27V16.5C102.446 16.7667 102.503 16.9567 102.616 17.07C102.73 17.1767 102.926 17.23 103.206 17.23H103.876V18H103.056C102.55 18 102.17 17.8833 101.916 17.65C101.663 17.4167 101.536 17.0333 101.536 16.5V13.27H100.826V12.52H101.536V11.14H102.446V12.52H103.876V13.27H102.446ZM109.875 13.27H108.725V18H107.815V13.27H107.105V12.52H107.815V12.13C107.815 11.5167 107.972 11.07 108.285 10.79C108.605 10.5033 109.115 10.36 109.815 10.36V11.12C109.415 11.12 109.132 11.2 108.965 11.36C108.805 11.5133 108.725 11.77 108.725 12.13V12.52H109.875V13.27ZM111.846 13.41C112.006 13.0967 112.233 12.8533 112.526 12.68C112.826 12.5067 113.189 12.42 113.616 12.42V13.36H113.376C112.356 13.36 111.846 13.9133 111.846 15.02V18H110.936V12.52H111.846V13.41ZM117.056 18.09C116.543 18.09 116.076 17.9733 115.656 17.74C115.243 17.5067 114.916 17.1767 114.676 16.75C114.443 16.3167 114.326 15.8167 114.326 15.25C114.326 14.69 114.446 14.1967 114.686 13.77C114.933 13.3367 115.266 13.0067 115.686 12.78C116.106 12.5467 116.576 12.43 117.096 12.43C117.616 12.43 118.086 12.5467 118.506 12.78C118.926 13.0067 119.256 13.3333 119.496 13.76C119.743 14.1867 119.866 14.6833 119.866 15.25C119.866 15.8167 119.74 16.3167 119.486 16.75C119.24 17.1767 118.903 17.5067 118.476 17.74C118.05 17.9733 117.576 18.09 117.056 18.09ZM117.056 17.29C117.383 17.29 117.69 17.2133 117.976 17.06C118.263 16.9067 118.493 16.6767 118.666 16.37C118.846 16.0633 118.936 15.69 118.936 15.25C118.936 14.81 118.85 14.4367 118.676 14.13C118.503 13.8233 118.276 13.5967 117.996 13.45C117.716 13.2967 117.413 13.22 117.086 13.22C116.753 13.22 116.446 13.2967 116.166 13.45C115.893 13.5967 115.673 13.8233 115.506 14.13C115.34 14.4367 115.256 14.81 115.256 15.25C115.256 15.6967 115.336 16.0733 115.496 16.38C115.663 16.6867 115.883 16.9167 116.156 17.07C116.43 17.2167 116.73 17.29 117.056 17.29ZM127.653 12.42C128.08 12.42 128.46 12.51 128.793 12.69C129.126 12.8633 129.39 13.1267 129.583 13.48C129.776 13.8333 129.873 14.2633 129.873 14.77V18H128.973V14.9C128.973 14.3533 128.836 13.9367 128.563 13.65C128.296 13.3567 127.933 13.21 127.473 13.21C127 13.21 126.623 13.3633 126.343 13.67C126.063 13.97 125.923 14.4067 125.923 14.98V18H125.023V14.9C125.023 14.3533 124.886 13.9367 124.613 13.65C124.346 13.3567 123.983 13.21 123.523 13.21C123.05 13.21 122.673 13.3633 122.393 13.67C122.113 13.97 121.973 14.4067 121.973 14.98V18H121.063V12.52H121.973V13.31C122.153 13.0233 122.393 12.8033 122.693 12.65C123 12.4967 123.336 12.42 123.703 12.42C124.163 12.42 124.57 12.5233 124.923 12.73C125.276 12.9367 125.54 13.24 125.713 13.64C125.866 13.2533 126.12 12.9533 126.473 12.74C126.826 12.5267 127.22 12.42 127.653 12.42ZM53.976 30.192C53.976 30.7573 53.8427 31.2907 53.576 31.792C53.3093 32.2933 52.8827 32.704 52.296 33.024C51.7093 33.3333 50.9573 33.488 50.04 33.488H48.024V38H46.2V26.88H50.04C50.8933 26.88 51.6133 27.0293 52.2 27.328C52.7973 27.616 53.24 28.0107 53.528 28.512C53.8267 29.0133 53.976 29.5733 53.976 30.192ZM50.04 32C50.7333 32 51.2507 31.8453 51.592 31.536C51.9333 31.216 52.104 30.768 52.104 30.192C52.104 28.976 51.416 28.368 50.04 28.368H48.024V32H50.04ZM57.5396 26.16V38H55.7156V26.16H57.5396ZM59.3264 33.552C59.3264 32.6667 59.5077 31.8827 59.8704 31.2C60.2437 30.5173 60.745 29.9893 61.3744 29.616C62.0144 29.232 62.7184 29.04 63.4864 29.04C64.1797 29.04 64.7824 29.1787 65.2944 29.456C65.817 29.7227 66.233 30.0587 66.5424 30.464V29.184H68.3824V38H66.5424V36.688C66.233 37.104 65.8117 37.4507 65.2784 37.728C64.745 38.0053 64.137 38.144 63.4544 38.144C62.697 38.144 62.0037 37.952 61.3744 37.568C60.745 37.1733 60.2437 36.6293 59.8704 35.936C59.5077 35.232 59.3264 34.4373 59.3264 33.552ZM66.5424 33.584C66.5424 32.976 66.4144 32.448 66.1584 32C65.913 31.552 65.5877 31.2107 65.1824 30.976C64.777 30.7413 64.3397 30.624 63.8704 30.624C63.401 30.624 62.9637 30.7413 62.5584 30.976C62.153 31.2 61.8224 31.536 61.5664 31.984C61.321 32.4213 61.1984 32.944 61.1984 33.552C61.1984 34.16 61.321 34.6933 61.5664 35.152C61.8224 35.6107 62.153 35.9627 62.5584 36.208C62.9744 36.4427 63.4117 36.56 63.8704 36.56C64.3397 36.56 64.777 36.4427 65.1824 36.208C65.5877 35.9733 65.913 35.632 66.1584 35.184C66.4144 34.7253 66.5424 34.192 66.5424 33.584ZM78.7141 29.184L73.3061 42.144H71.4181L73.2101 37.856L69.7381 29.184H71.7701L74.2501 35.904L76.8261 29.184H78.7141ZM87.9109 38.112C87.1642 38.112 86.4922 37.984 85.8949 37.728C85.2975 37.4613 84.8282 37.088 84.4869 36.608C84.1455 36.128 83.9749 35.568 83.9749 34.928H85.9269C85.9695 35.408 86.1562 35.8027 86.4869 36.112C86.8282 36.4213 87.3029 36.576 87.9109 36.576C88.5402 36.576 89.0309 36.4267 89.3829 36.128C89.7349 35.8187 89.9109 35.424 89.9109 34.944C89.9109 34.5707 89.7989 34.2667 89.5749 34.032C89.3615 33.7973 89.0895 33.616 88.7589 33.488C88.4389 33.36 87.9909 33.2213 87.4149 33.072C86.6895 32.88 86.0975 32.688 85.6389 32.496C85.1909 32.2933 84.8069 31.984 84.4869 31.568C84.1669 31.152 84.0069 30.5973 84.0069 29.904C84.0069 29.264 84.1669 28.704 84.4869 28.224C84.8069 27.744 85.2549 27.376 85.8309 27.12C86.4069 26.864 87.0735 26.736 87.8309 26.736C88.9082 26.736 89.7882 27.008 90.4709 27.552C91.1642 28.0853 91.5482 28.8213 91.6229 29.76H89.6069C89.5749 29.3547 89.3829 29.008 89.0309 28.72C88.6789 28.432 88.2149 28.288 87.6389 28.288C87.1162 28.288 86.6895 28.4213 86.3589 28.688C86.0282 28.9547 85.8629 29.3387 85.8629 29.84C85.8629 30.1813 85.9642 30.464 86.1669 30.688C86.3802 30.9013 86.6469 31.072 86.9669 31.2C87.2869 31.328 87.7242 31.4667 88.2789 31.616C89.0149 31.8187 89.6122 32.0213 90.0709 32.224C90.5402 32.4267 90.9349 32.7413 91.2549 33.168C91.5855 33.584 91.7509 34.144 91.7509 34.848C91.7509 35.4133 91.5962 35.9467 91.2869 36.448C90.9882 36.9493 90.5455 37.3547 89.9589 37.664C89.3829 37.9627 88.7002 38.112 87.9109 38.112ZM96.0311 30.672V35.552C96.0311 35.8827 96.1058 36.1227 96.2551 36.272C96.4151 36.4107 96.6818 36.48 97.0551 36.48H98.1751V38H96.7351C95.9138 38 95.2845 37.808 94.8471 37.424C94.4098 37.04 94.1911 36.416 94.1911 35.552V30.672H93.1511V29.184H94.1911V26.992H96.0311V29.184H98.1751V30.672H96.0311ZM103.68 38.144C102.848 38.144 102.096 37.9573 101.424 37.584C100.752 37.2 100.224 36.6667 99.8403 35.984C99.4563 35.2907 99.2643 34.4907 99.2643 33.584C99.2643 32.688 99.4616 31.8933 99.8563 31.2C100.251 30.5067 100.79 29.9733 101.472 29.6C102.155 29.2267 102.918 29.04 103.76 29.04C104.603 29.04 105.366 29.2267 106.048 29.6C106.731 29.9733 107.27 30.5067 107.664 31.2C108.059 31.8933 108.256 32.688 108.256 33.584C108.256 34.48 108.054 35.2747 107.648 35.968C107.243 36.6613 106.688 37.2 105.984 37.584C105.291 37.9573 104.523 38.144 103.68 38.144ZM103.68 36.56C104.15 36.56 104.587 36.448 104.992 36.224C105.408 36 105.744 35.664 106 35.216C106.256 34.768 106.384 34.224 106.384 33.584C106.384 32.944 106.262 32.4053 106.016 31.968C105.771 31.52 105.446 31.184 105.04 30.96C104.635 30.736 104.198 30.624 103.728 30.624C103.259 30.624 102.822 30.736 102.416 30.96C102.022 31.184 101.707 31.52 101.472 31.968C101.238 32.4053 101.12 32.944 101.12 33.584C101.12 34.5333 101.36 35.2693 101.84 35.792C102.331 36.304 102.944 36.56 103.68 36.56ZM111.883 30.464C112.15 30.016 112.502 29.6693 112.939 29.424C113.387 29.168 113.915 29.04 114.523 29.04V30.928H114.059C113.345 30.928 112.801 31.1093 112.427 31.472C112.065 31.8347 111.883 32.464 111.883 33.36V38H110.059V29.184H111.883V30.464ZM124.28 33.376C124.28 33.7067 124.259 34.0053 124.216 34.272H117.48C117.533 34.976 117.795 35.5413 118.264 35.968C118.733 36.3947 119.309 36.608 119.992 36.608C120.973 36.608 121.667 36.1973 122.072 35.376H124.04C123.773 36.1867 123.288 36.8533 122.584 37.376C121.891 37.888 121.027 38.144 119.992 38.144C119.149 38.144 118.392 37.9573 117.72 37.584C117.059 37.2 116.536 36.6667 116.152 35.984C115.779 35.2907 115.592 34.4907 115.592 33.584C115.592 32.6773 115.773 31.8827 116.136 31.2C116.509 30.5067 117.027 29.9733 117.688 29.6C118.36 29.2267 119.128 29.04 119.992 29.04C120.824 29.04 121.565 29.2213 122.216 29.584C122.867 29.9467 123.373 30.4587 123.736 31.12C124.099 31.7707 124.28 32.5227 124.28 33.376ZM122.376 32.8C122.365 32.128 122.125 31.5893 121.656 31.184C121.187 30.7787 120.605 30.576 119.912 30.576C119.283 30.576 118.744 30.7787 118.296 31.184C117.848 31.5787 117.581 32.1173 117.496 32.8H122.376Z" fill="white"/>
</svg>
